<?xml version="1.0" encoding="UTF-8"?>
<svg id="Layer_2" data-name="Layer 2" xmlns="http://www.w3.org/2000/svg" viewBox="0 0 73.1 37.6">
  <defs>
    <style>
      .cls-1 {
        fill: #2e3192;
      }

      .cls-2 {
        fill: #665925;
      }
    </style>
  </defs>
  <g id="Layer_1-2" data-name="Layer 1">
    <g>
      <path class="cls-1" d="M1.68.4l10.28,36.8h-1.68L0,.4h1.68ZM5.04.4l10.28,36.8h-1.68L3.36.4h1.68ZM8.4.4l10.28,36.8h-1.68L6.72.4h1.68ZM18.87.4l10.28,36.8h-1.68l-2.71-9.7-2.71,9.7h-1.7L10.08.4h1.68l1.02,3.68,1.04-3.68h1.68l-1.87,6.69.85,3.01L17.19.4h1.68ZM18.02,3.41l-2.71,9.7.85,3.01,2.71-9.68-.85-3.03ZM17.85,22.14l2.71-9.7-.83-3.01-2.72,9.7.85,3.01ZM22.23,18.49l-.85-3.06-2.71,9.72.85,3.03,2.71-9.68ZM23.91,24.49l-.83-3.01-2.72,9.7.85,3.01,2.71-9.7ZM22.23.4l10.28,36.8h-1.68L20.55.4h1.68ZM25.59.4l10.28,36.8h-1.68L23.91.4h1.68ZM49.52.4l-10.28,36.8h-1.7L27.27.4h1.68l1.02,3.68,1.04-3.68h1.68l-1.87,6.69.85,3.01L34.38.4h1.68l-3.55,12.71.85,3.01L37.74.4h1.68l-5.23,18.73.85,3.01L41.1.4h1.68l-6.91,24.75.85,3.03L44.48.4h1.68l-8.61,30.78.85,3.01L47.84.4h1.68Z"/>
      <path class="cls-2" d="M73.1,12.2v1.28h-1.6v-1.28c0-5.86-4.74-10.6-10.6-10.6s-10.61,4.74-10.61,10.6,4.75,10.6,10.61,10.6c1.42,0,2.59,1.17,2.59,2.61s-1.17,2.59-2.59,2.59-2.61-1.17-2.61-2.59v-1.28c-5.49-1.2-9.59-6.08-9.59-11.92,0-6.74,5.46-12.2,12.2-12.2s12.2,5.46,12.2,12.2ZM63.49,12.2v1.28c5.49,1.18,9.6,6.08,9.6,11.92,0,6.74-5.46,12.2-12.2,12.2s-12.2-5.46-12.2-12.2v-1.28h1.58v1.28c0,5.86,4.75,10.6,10.61,10.6s10.6-4.74,10.6-10.6-4.74-10.61-10.6-10.61c-1.44,0-2.61-1.15-2.61-2.59s1.17-2.59,2.61-2.59,2.59,1.15,2.59,2.59ZM69.9,12.2v1.28h-1.6v-1.28c0-4.08-3.31-7.4-7.4-7.4s-7.41,3.31-7.41,7.4,3.31,7.39,7.41,7.39c3.2,0,5.79,2.61,5.79,5.81s-2.59,5.79-5.79,5.79-5.81-2.59-5.81-5.79v-1.28h1.6v1.28c0,2.32,1.89,4.19,4.21,4.19s4.19-1.87,4.19-4.19-1.87-4.21-4.19-4.21c-4.98,0-9.01-4.02-9.01-9s4.03-9,9.01-9,9,4.02,9,9ZM66.7,12.2v1.28h-1.6v-1.28c0-2.32-1.87-4.19-4.19-4.19s-4.21,1.87-4.21,4.19,1.89,4.19,4.21,4.19c4.96,0,9,4.03,9,9.01s-4.03,9-9,9-9.01-4.03-9.01-9v-1.28h1.6v1.28c0,4.08,3.31,7.4,7.41,7.4s7.4-3.31,7.4-7.4-3.31-7.41-7.4-7.41c-3.2,0-5.81-2.59-5.81-5.79s2.61-5.79,5.81-5.79,5.79,2.59,5.79,5.79ZM59.89,12.2c0,.56.45,1.01,1.01,1.01.34,0,.67,0,.99.03v-1.04c0-.54-.45-.99-.99-.99s-1.01.45-1.01.99ZM59.89,25.4c0,.54.45.99,1.01.99s.99-.45.99-.99-.45-1.01-.99-1.01c-.34,0-.67-.02-1.01-.03v1.04Z"/>
    </g>
  </g>
</svg>